# xmcd
#
# Track frame offsets:
#	150
#	11445
#	21612
#	31987
#	42220
#	51815
#	67512
#	76175
#	86172
#	98442
#	111667
#	122785
#	134430
#	148957
#	157635
#	174132
#
# Disc length: 2473
#
# Revision: 2
# Processed by: cddbd v1.5.1PL0 Copyright (c) Steve Scherf et al.
# Submitted via: CDex 1.40Beta3
# Normalized: r1:TDELIM( - )
#
DISCID=c609a710
DTITLE=Various Artist - Country Love
DYEAR=1900
DGENRE=Country
TTITLE0=Hank Locklin - Send Me the Pillow You Dream On
TTITLE1=Bobby Bare - Help Me Make it Through the Night
TTITLE2=Glen Campbell - Dreams of the Everyday Housewife
TTITLE3=Patsy Cline - 3 Cigarettes in an Ashtray
TTITLE4=George Jones - Sweet Dreams
TTITLE5=Cash McCall - Across the Wild Missourri
TTITLE6=Billie Jo Spears - You're My Man
TTITLE7=Faron Young - Alone with You
TTITLE8=Glen Campbell - By the Time I Get to Phoenix (live)
TTITLE9=Bill Anderson - Your Eyes Don't Lie to Me
TTITLE10=Jeannie C. Riley - Box of Memories
TTITLE11=Roger Miller - Little Green Apples
TTITLE12=Roy Clark - A Simple Thing as Love
TTITLE13=Waylon Jennings - Love's Gonna Live Here
TTITLE14=Billy Walker - Touch of My Woman
TTITLE15=Patsy Cline - I've Loved and Lost Again
EXTD=ID3G:   2
EXTT0=
EXTT1=
EXTT2=
EXTT3=
EXTT4=
EXTT5=
EXTT6=
EXTT7=
EXTT8=
EXTT9=
EXTT10=
EXTT11=
EXTT12=
EXTT13=
EXTT14=
EXTT15=
PLAYORDER=
